<svg xmlns="http://www.w3.org/2000/svg" xmlns:xlink="http://www.w3.org/1999/xlink" width="48" zoomAndPan="magnify" viewBox="0 0 36 36.000001" height="48" preserveAspectRatio="xMidYMid meet" version="1.0"><defs><g/><clipPath id="132c6618f3"><path d="M 0.488281 9 L 35.511719 9 L 35.511719 26 L 0.488281 26 Z M 0.488281 9 " clip-rule="nonzero"/></clipPath><clipPath id="1aec1d9889"><path d="M 0.488281 1 L 35.511719 1 L 35.511719 14 L 0.488281 14 Z M 0.488281 1 " clip-rule="nonzero"/></clipPath><clipPath id="8a214db77e"><rect x="0" width="36" y="0" height="17"/></clipPath><clipPath id="18a9d23ac3"><path d="M 0.101562 1 L 3 1 L 3 5.855469 L 0.101562 5.855469 Z M 0.101562 1 " clip-rule="nonzero"/></clipPath><clipPath id="ee029353a5"><path d="M 4 2 L 6.40625 2 L 6.40625 5 L 4 5 Z M 4 2 " clip-rule="nonzero"/></clipPath><clipPath id="4c5293946d"><rect x="0" width="7" y="0" height="6"/></clipPath><clipPath id="337bcbe0bd"><path d="M 26 21 L 35.511719 21 L 35.511719 27 L 26 27 Z M 26 21 " clip-rule="nonzero"/></clipPath><clipPath id="83b26f3733"><path d="M 0.875 1 L 4 1 L 4 5 L 0.875 5 Z M 0.875 1 " clip-rule="nonzero"/></clipPath><clipPath id="5acc54a8e1"><rect x="0" width="10" y="0" height="6"/></clipPath></defs><g clip-path="url(#132c6618f3)"><g transform="matrix(1, 0, 0, 1, 0.000000000000000056, 9)"><g clip-path="url(#8a214db77e)"><g clip-path="url(#1aec1d9889)"><g fill="#0097b2" fill-opacity="1"><g transform="translate(0.486486, 13.259021)"><g><path d="M 10.40625 -10.65625 L 10.46875 -10.65625 C 10.644531 -10.65625 10.816406 -10.125 10.984375 -9.0625 C 11.160156 -8 11.25 -6.835938 11.25 -5.578125 L 11.25 -5.171875 C 11.21875 -3.078125 11.15625 -1.976562 11.0625 -1.875 C 10.726562 -1.445312 10.328125 -1.085938 9.859375 -0.796875 C 9.398438 -0.503906 8.972656 -0.238281 8.578125 0 C 8.691406 -1.15625 8.75 -2.035156 8.75 -2.640625 L 8.75 -2.859375 C 8.75 -3.554688 8.691406 -4.769531 8.578125 -6.5 C 7.878906 -3.738281 7.472656 -2.285156 7.359375 -2.140625 C 6.765625 -1.398438 5.941406 -0.75 4.890625 -0.1875 C 4.867188 -0.34375 4.722656 -0.8125 4.453125 -1.59375 C 4.179688 -2.382812 3.71875 -3.46875 3.0625 -4.84375 C 2.914062 -3.0625 2.828125 -2.132812 2.796875 -2.0625 C 2.691406 -1.875 2.335938 -1.515625 1.734375 -0.984375 C 1.285156 -0.640625 0.835938 -0.320312 0.390625 -0.03125 L 0.828125 -7.671875 L 0.828125 -7.734375 C 0.828125 -8.085938 0.65625 -8.265625 0.3125 -8.265625 L 0.09375 -8.265625 C 0.945312 -9.191406 1.5625 -9.78125 1.9375 -10.03125 C 2.289062 -10.269531 2.5625 -10.390625 2.75 -10.390625 L 2.765625 -10.390625 C 3.140625 -10.367188 3.773438 -9.707031 4.671875 -8.40625 C 5.191406 -7.664062 5.585938 -6.945312 5.859375 -6.25 C 5.984375 -5.9375 6.09375 -5.617188 6.1875 -5.296875 C 6.707031 -7.015625 7.109375 -8.050781 7.390625 -8.40625 C 8.179688 -9.300781 8.835938 -9.898438 9.359375 -10.203125 C 9.878906 -10.503906 10.226562 -10.65625 10.40625 -10.65625 Z M 10.40625 -10.65625 "/></g></g><g transform="translate(11.904907, 13.259021)"><g><path d="M 2.59375 0.140625 C 1.476562 0.140625 0.753906 -0.519531 0.421875 -1.84375 C 0.367188 -2.195312 0.34375 -2.5625 0.34375 -2.9375 C 0.34375 -4.894531 1.023438 -6.28125 2.390625 -7.09375 C 3.765625 -7.90625 4.707031 -8.3125 5.21875 -8.3125 L 5.296875 -8.3125 C 5.722656 -8.3125 6.296875 -8.050781 7.015625 -7.53125 C 7.078125 -7.5625 7.132812 -7.578125 7.1875 -7.578125 C 7.007812 -5.410156 6.921875 -4.039062 6.921875 -3.46875 C 6.921875 -2.90625 7.210938 -2.40625 7.796875 -1.96875 C 7.984375 -1.863281 8.203125 -1.8125 8.453125 -1.8125 C 8.753906 -1.8125 9.078125 -1.84375 9.421875 -1.90625 C 8.046875 -0.632812 6.988281 0 6.25 0 C 5.65625 0 5.144531 -0.265625 4.71875 -0.796875 C 4.039062 -0.171875 3.332031 0.140625 2.59375 0.140625 Z M 4.359375 -1.671875 C 4.492188 -3.222656 4.582031 -4.457031 4.625 -5.375 C 4.625 -5.882812 4.125 -6.238281 3.125 -6.4375 C 2.914062 -5.519531 2.8125 -4.75 2.8125 -4.125 C 2.8125 -2.769531 3.328125 -1.953125 4.359375 -1.671875 Z M 4.359375 -1.671875 "/></g></g><g transform="translate(20.332789, 13.259021)"><g><path d="M 4.28125 -9.890625 C 4.3125 -9.617188 4.332031 -9.328125 4.34375 -9.015625 L 4.34375 -8.8125 C 4.34375 -8.507812 4.332031 -8.101562 4.3125 -7.59375 C 4.9375 -7.382812 5.472656 -7.28125 5.921875 -7.28125 L 6.015625 -7.28125 C 6.148438 -7.28125 6.332031 -7.300781 6.5625 -7.34375 C 6.019531 -6.257812 5.191406 -5.609375 4.078125 -5.390625 C 3.992188 -4.535156 3.953125 -3.832031 3.953125 -3.28125 C 3.953125 -2.738281 4.085938 -2.378906 4.359375 -2.203125 C 4.640625 -2.046875 4.960938 -1.96875 5.328125 -1.96875 C 5.796875 -1.96875 6.304688 -2.257812 6.859375 -2.84375 C 5.929688 -0.945312 4.804688 0 3.484375 0 C 3.421875 0 3.359375 0 3.296875 0 C 2.234375 -0.101562 1.695312 -0.539062 1.6875 -1.3125 C 1.84375 -3.4375 1.941406 -4.988281 1.984375 -5.96875 C 1.234375 -6.125 0.65625 -6.203125 0.25 -6.203125 C 0.101562 -6.203125 -0.09375 -6.175781 -0.34375 -6.125 C 0.09375 -7 0.859375 -7.597656 1.953125 -7.921875 C 1.953125 -8.585938 1.679688 -9.265625 1.140625 -9.953125 C 1.753906 -10.804688 2.394531 -11.375 3.0625 -11.65625 C 3.15625 -11.695312 3.25 -11.71875 3.34375 -11.71875 L 3.359375 -11.71875 C 3.835938 -11.707031 4.144531 -11.097656 4.28125 -9.890625 Z M 4.28125 -9.890625 "/></g></g><g transform="translate(27.482161, 13.259021)"><g><path d="M 0.484375 0 C 0.441406 -4.050781 0.421875 -7.253906 0.421875 -9.609375 C 1.253906 -10.429688 2.019531 -11.050781 2.71875 -11.46875 L 2.71875 -11.4375 C 2.726562 -10.164062 2.734375 -8.578125 2.734375 -6.671875 C 3.609375 -7.378906 4.519531 -7.734375 5.46875 -7.734375 L 5.59375 -7.734375 C 6.394531 -7.734375 6.796875 -7.242188 6.796875 -6.265625 L 6.796875 -4.5625 C 6.835938 -3.445312 6.96875 -2.753906 7.1875 -2.484375 C 7.394531 -2.234375 7.617188 -2.109375 7.859375 -2.109375 L 7.90625 -2.109375 C 6.914062 -0.816406 6.066406 -0.171875 5.359375 -0.171875 C 5.117188 -0.171875 4.914062 -0.304688 4.75 -0.578125 C 4.59375 -0.859375 4.488281 -1.554688 4.4375 -2.671875 L 4.4375 -4.5625 C 4.4375 -5.414062 4.078125 -5.84375 3.359375 -5.84375 C 3.078125 -5.820312 2.882812 -5.78125 2.78125 -5.71875 C 2.769531 -5.332031 2.765625 -5.039062 2.765625 -4.84375 L 2.765625 -1.796875 C 2.160156 -1.148438 1.398438 -0.550781 0.484375 0 Z M 0.484375 0 "/></g></g></g></g></g></g></g><g transform="matrix(1, 0, 0, 1, 20, 21)"><g clip-path="url(#4c5293946d)"><g clip-path="url(#18a9d23ac3)"><g fill="#000000" fill-opacity="1"><g transform="translate(0.326294, 4.598801)"><g><path d="M 0.453125 0.28125 C 0.460938 0.257812 0.46875 0.222656 0.46875 0.171875 C 0.476562 0.128906 0.476562 0.09375 0.46875 0.0625 C 0.46875 -0.03125 0.460938 -0.160156 0.453125 -0.328125 C 0.441406 -0.546875 0.429688 -0.726562 0.421875 -0.875 C 0.410156 -1.019531 0.40625 -1.15625 0.40625 -1.28125 C 0.40625 -1.332031 0.410156 -1.394531 0.421875 -1.46875 L 0.421875 -1.515625 L 0.15625 -1.546875 C 0.132812 -1.609375 0.117188 -1.664062 0.109375 -1.71875 C 0.109375 -1.78125 0.109375 -1.851562 0.109375 -1.9375 C 0.191406 -1.976562 0.304688 -2.019531 0.453125 -2.0625 L 0.46875 -2.09375 C 0.382812 -2.164062 0.316406 -2.25 0.265625 -2.34375 C 0.210938 -2.4375 0.1875 -2.535156 0.1875 -2.640625 C 0.1875 -2.753906 0.21875 -2.851562 0.28125 -2.9375 C 0.34375 -3.019531 0.429688 -3.082031 0.546875 -3.125 C 0.671875 -3.164062 0.8125 -3.1875 0.96875 -3.1875 C 1.070312 -3.1875 1.171875 -3.179688 1.265625 -3.171875 C 1.359375 -3.171875 1.472656 -3.148438 1.609375 -3.109375 C 1.628906 -3.054688 1.640625 -2.992188 1.640625 -2.921875 C 1.640625 -2.835938 1.628906 -2.75 1.609375 -2.65625 C 1.585938 -2.570312 1.554688 -2.492188 1.515625 -2.421875 C 1.390625 -2.460938 1.285156 -2.492188 1.203125 -2.515625 C 1.128906 -2.535156 1.046875 -2.554688 0.953125 -2.578125 C 0.941406 -2.566406 0.925781 -2.550781 0.90625 -2.53125 C 0.882812 -2.519531 0.875 -2.507812 0.875 -2.5 C 0.882812 -2.4375 0.910156 -2.363281 0.953125 -2.28125 C 0.992188 -2.207031 1.035156 -2.132812 1.078125 -2.0625 L 1.625 -2.171875 C 1.675781 -2.097656 1.703125 -2 1.703125 -1.875 C 1.703125 -1.789062 1.691406 -1.710938 1.671875 -1.640625 C 1.660156 -1.578125 1.640625 -1.53125 1.609375 -1.5 C 1.597656 -1.5 1.578125 -1.5 1.546875 -1.5 C 1.410156 -1.5 1.289062 -1.515625 1.1875 -1.546875 C 1.1875 -1.390625 1.179688 -1.28125 1.171875 -1.21875 C 1.171875 -1.164062 1.171875 -1.082031 1.171875 -0.96875 L 1.15625 -0.640625 C 1.144531 -0.453125 1.132812 -0.296875 1.125 -0.171875 C 1.125 -0.0546875 1.117188 0.0546875 1.109375 0.171875 C 1.097656 0.273438 1.082031 0.363281 1.0625 0.4375 C 1.039062 0.519531 1.007812 0.585938 0.96875 0.640625 C 0.863281 0.773438 0.691406 0.84375 0.453125 0.84375 C 0.359375 0.84375 0.265625 0.820312 0.171875 0.78125 C 0.078125 0.75 0.00390625 0.695312 -0.046875 0.625 C -0.046875 0.539062 -0.03125 0.457031 0 0.375 C 0.0195312 0.300781 0.0546875 0.238281 0.109375 0.1875 Z M 0.453125 0.28125 "/></g></g></g></g><g fill="#000000" fill-opacity="1"><g transform="translate(2.07185, 4.598801)"><g><path d="M 0.125 -1.15625 C 0.125 -1.394531 0.160156 -1.601562 0.234375 -1.78125 C 0.316406 -1.957031 0.4375 -2.09375 0.59375 -2.1875 C 0.75 -2.28125 0.945312 -2.328125 1.1875 -2.328125 C 1.445312 -2.328125 1.648438 -2.28125 1.796875 -2.1875 C 1.953125 -2.09375 2.054688 -1.957031 2.109375 -1.78125 C 2.171875 -1.601562 2.203125 -1.390625 2.203125 -1.140625 C 2.203125 -0.910156 2.160156 -0.707031 2.078125 -0.53125 C 2.003906 -0.351562 1.890625 -0.210938 1.734375 -0.109375 C 1.578125 -0.00390625 1.378906 0.046875 1.140625 0.046875 C 0.785156 0.046875 0.523438 -0.0625 0.359375 -0.28125 C 0.203125 -0.507812 0.125 -0.800781 0.125 -1.15625 Z M 1.234375 -0.53125 C 1.296875 -0.53125 1.332031 -0.535156 1.34375 -0.546875 C 1.375 -0.597656 1.394531 -0.671875 1.40625 -0.765625 C 1.425781 -0.867188 1.4375 -0.976562 1.4375 -1.09375 C 1.4375 -1.1875 1.429688 -1.28125 1.421875 -1.375 C 1.410156 -1.46875 1.394531 -1.539062 1.375 -1.59375 C 1.351562 -1.601562 1.320312 -1.613281 1.28125 -1.625 C 1.238281 -1.632812 1.191406 -1.640625 1.140625 -1.640625 C 1.078125 -1.640625 1.03125 -1.628906 1 -1.609375 C 0.9375 -1.503906 0.90625 -1.347656 0.90625 -1.140625 C 0.90625 -1.046875 0.910156 -0.945312 0.921875 -0.84375 C 0.941406 -0.75 0.960938 -0.664062 0.984375 -0.59375 C 0.992188 -0.570312 1.023438 -0.554688 1.078125 -0.546875 C 1.128906 -0.535156 1.179688 -0.53125 1.234375 -0.53125 Z M 1.234375 -0.53125 "/></g></g></g><g clip-path="url(#ee029353a5)"><g fill="#000000" fill-opacity="1"><g transform="translate(4.411052, 4.598801)"><g><path d="M 0.328125 -0.53125 C 0.328125 -0.582031 0.332031 -0.71875 0.34375 -0.9375 C 0.34375 -1.375 0.34375 -1.613281 0.34375 -1.65625 L 0.15625 -1.6875 C 0.132812 -1.757812 0.117188 -1.828125 0.109375 -1.890625 C 0.0976562 -1.953125 0.09375 -2.019531 0.09375 -2.09375 C 0.09375 -2.125 0.09375 -2.144531 0.09375 -2.15625 C 0.113281 -2.175781 0.144531 -2.195312 0.1875 -2.21875 C 0.238281 -2.25 0.296875 -2.273438 0.359375 -2.296875 C 0.429688 -2.316406 0.5 -2.328125 0.5625 -2.328125 C 0.71875 -2.328125 0.832031 -2.289062 0.90625 -2.21875 C 0.976562 -2.15625 1.015625 -2.054688 1.015625 -1.921875 C 1.015625 -1.835938 1.003906 -1.734375 0.984375 -1.609375 C 0.960938 -1.484375 0.941406 -1.394531 0.921875 -1.34375 L 0.984375 -1.328125 L 1.109375 -1.78125 C 1.160156 -1.976562 1.222656 -2.117188 1.296875 -2.203125 C 1.378906 -2.285156 1.46875 -2.328125 1.5625 -2.328125 C 1.625 -2.328125 1.6875 -2.316406 1.75 -2.296875 C 1.820312 -2.285156 1.875 -2.265625 1.90625 -2.234375 C 1.9375 -2.148438 1.953125 -2.039062 1.953125 -1.90625 C 1.953125 -1.8125 1.941406 -1.71875 1.921875 -1.625 C 1.910156 -1.53125 1.890625 -1.457031 1.859375 -1.40625 L 1.453125 -1.453125 C 1.367188 -1.367188 1.28125 -1.242188 1.1875 -1.078125 C 1.09375 -0.921875 1.015625 -0.78125 0.953125 -0.65625 L 0.953125 -0.546875 L 1.328125 -0.640625 C 1.398438 -0.535156 1.441406 -0.414062 1.453125 -0.28125 C 1.453125 -0.28125 1.421875 -0.25 1.359375 -0.1875 C 1.296875 -0.132812 1.21875 -0.0820312 1.125 -0.03125 C 1.03125 0.0078125 0.921875 0.03125 0.796875 0.03125 C 0.660156 0.03125 0.550781 0 0.46875 -0.0625 C 0.382812 -0.132812 0.335938 -0.253906 0.328125 -0.421875 C 0.328125 -0.429688 0.328125 -0.46875 0.328125 -0.53125 Z M 0.328125 -0.53125 "/></g></g></g></g></g></g><g clip-path="url(#337bcbe0bd)"><g transform="matrix(1, 0, 0, 1, 26, 21)"><g clip-path="url(#5acc54a8e1)"><g clip-path="url(#83b26f3733)"><g fill="#000000" fill-opacity="1"><g transform="translate(0.915567, 4.598801)"><g><path d="M 0.25 -1.265625 C 0.25 -1.878906 0.257812 -2.300781 0.28125 -2.53125 L 0.0625 -2.578125 C 0.03125 -2.691406 0.015625 -2.820312 0.015625 -2.96875 C 0.0351562 -2.988281 0.0703125 -3.015625 0.125 -3.046875 C 0.175781 -3.085938 0.238281 -3.117188 0.3125 -3.140625 C 0.382812 -3.171875 0.457031 -3.1875 0.53125 -3.1875 C 0.695312 -3.1875 0.828125 -3.148438 0.921875 -3.078125 C 1.023438 -3.003906 1.078125 -2.875 1.078125 -2.6875 C 1.078125 -2.59375 1.070312 -2.453125 1.0625 -2.265625 C 1.050781 -2.078125 1.023438 -1.847656 0.984375 -1.578125 C 0.953125 -1.304688 0.90625 -1.023438 0.84375 -0.734375 L 0.875 -0.71875 C 0.976562 -0.851562 1.078125 -1.003906 1.171875 -1.171875 C 1.273438 -1.347656 1.351562 -1.515625 1.40625 -1.671875 L 1.234375 -1.703125 C 1.222656 -1.796875 1.21875 -1.90625 1.21875 -2.03125 L 1.21875 -2.09375 C 1.269531 -2.15625 1.335938 -2.207031 1.421875 -2.25 C 1.503906 -2.300781 1.613281 -2.328125 1.75 -2.328125 C 1.84375 -2.328125 1.921875 -2.3125 1.984375 -2.28125 C 2.054688 -2.25 2.109375 -2.203125 2.140625 -2.140625 C 2.179688 -2.078125 2.203125 -2.003906 2.203125 -1.921875 C 2.203125 -1.859375 2.191406 -1.800781 2.171875 -1.75 C 2.148438 -1.695312 2.125 -1.640625 2.09375 -1.578125 C 2 -1.429688 1.832031 -1.222656 1.59375 -0.953125 C 1.675781 -0.835938 1.753906 -0.738281 1.828125 -0.65625 C 1.859375 -0.675781 1.882812 -0.695312 1.90625 -0.71875 C 1.9375 -0.738281 1.96875 -0.769531 2 -0.8125 L 2.046875 -0.859375 L 2.296875 -0.6875 C 2.285156 -0.445312 2.234375 -0.265625 2.140625 -0.140625 C 2.046875 -0.0234375 1.925781 0.03125 1.78125 0.03125 C 1.613281 0.03125 1.488281 -0.015625 1.40625 -0.109375 C 1.320312 -0.210938 1.265625 -0.351562 1.234375 -0.53125 C 1.085938 -0.375 0.957031 -0.242188 0.84375 -0.140625 C 0.738281 -0.0351562 0.671875 0.0234375 0.640625 0.046875 C 0.566406 0.046875 0.492188 0.0351562 0.421875 0.015625 C 0.359375 -0.00390625 0.3125 -0.03125 0.28125 -0.0625 C 0.269531 -0.25 0.257812 -0.429688 0.25 -0.609375 C 0.25 -0.796875 0.25 -1.015625 0.25 -1.265625 Z M 0.25 -1.265625 "/></g></g></g></g><g fill="#000000" fill-opacity="1"><g transform="translate(3.278357, 4.598801)"><g><path d="M 0.21875 -2.828125 C 0.21875 -2.941406 0.253906 -3.035156 0.328125 -3.109375 C 0.410156 -3.179688 0.535156 -3.21875 0.703125 -3.21875 C 0.859375 -3.21875 0.972656 -3.179688 1.046875 -3.109375 C 1.128906 -3.035156 1.171875 -2.941406 1.171875 -2.828125 C 1.171875 -2.753906 1.144531 -2.691406 1.09375 -2.640625 C 1.050781 -2.585938 0.992188 -2.546875 0.921875 -2.515625 C 0.847656 -2.484375 0.773438 -2.46875 0.703125 -2.46875 C 0.609375 -2.46875 0.523438 -2.484375 0.453125 -2.515625 C 0.378906 -2.554688 0.320312 -2.601562 0.28125 -2.65625 C 0.238281 -2.71875 0.21875 -2.773438 0.21875 -2.828125 Z M 0.125 -1.703125 C 0.101562 -1.765625 0.0859375 -1.820312 0.078125 -1.875 C 0.078125 -1.925781 0.078125 -1.984375 0.078125 -2.046875 L 0.078125 -2.09375 C 0.109375 -2.132812 0.148438 -2.171875 0.203125 -2.203125 C 0.265625 -2.234375 0.332031 -2.257812 0.40625 -2.28125 C 0.488281 -2.3125 0.570312 -2.328125 0.65625 -2.328125 C 0.84375 -2.328125 0.972656 -2.285156 1.046875 -2.203125 C 1.128906 -2.117188 1.171875 -1.992188 1.171875 -1.828125 C 1.171875 -1.722656 1.15625 -1.582031 1.125 -1.40625 C 1.09375 -1.238281 1.054688 -1.070312 1.015625 -0.90625 C 0.972656 -0.75 0.9375 -0.640625 0.90625 -0.578125 L 1.203125 -0.671875 C 1.253906 -0.628906 1.289062 -0.582031 1.3125 -0.53125 C 1.34375 -0.476562 1.363281 -0.414062 1.375 -0.34375 C 1.375 -0.332031 1.34375 -0.289062 1.28125 -0.21875 C 1.226562 -0.15625 1.15625 -0.09375 1.0625 -0.03125 C 0.96875 0.0195312 0.859375 0.046875 0.734375 0.046875 C 0.609375 0.046875 0.503906 0.0078125 0.421875 -0.0625 C 0.347656 -0.132812 0.3125 -0.25 0.3125 -0.40625 C 0.3125 -0.601562 0.316406 -0.8125 0.328125 -1.03125 C 0.335938 -1.25 0.351562 -1.457031 0.375 -1.65625 Z M 0.125 -1.703125 "/></g></g></g><g fill="#000000" fill-opacity="1"><g transform="translate(4.685809, 4.598801)"><g><path d="M 0.140625 -1.140625 C 0.140625 -1.335938 0.164062 -1.523438 0.21875 -1.703125 C 0.28125 -1.890625 0.367188 -2.039062 0.484375 -2.15625 C 0.609375 -2.269531 0.757812 -2.328125 0.9375 -2.328125 C 1.144531 -2.328125 1.34375 -2.265625 1.53125 -2.140625 L 1.5625 -2.15625 C 1.5625 -2.3125 1.539062 -2.453125 1.5 -2.578125 L 1.109375 -2.59375 C 1.085938 -2.625 1.070312 -2.660156 1.0625 -2.703125 C 1.050781 -2.753906 1.046875 -2.800781 1.046875 -2.84375 C 1.046875 -2.914062 1.050781 -2.976562 1.0625 -3.03125 C 1.144531 -3.082031 1.25 -3.117188 1.375 -3.140625 C 1.5 -3.171875 1.617188 -3.1875 1.734375 -3.1875 C 1.878906 -3.1875 1.984375 -3.160156 2.046875 -3.109375 C 2.117188 -3.054688 2.164062 -2.96875 2.1875 -2.84375 C 2.21875 -2.726562 2.234375 -2.570312 2.234375 -2.375 C 2.234375 -2.101562 2.21875 -1.796875 2.1875 -1.453125 C 2.164062 -1.117188 2.140625 -0.84375 2.109375 -0.625 L 2.09375 -0.59375 L 2.328125 -0.6875 C 2.367188 -0.65625 2.398438 -0.609375 2.421875 -0.546875 C 2.453125 -0.484375 2.472656 -0.414062 2.484375 -0.34375 C 2.460938 -0.300781 2.421875 -0.25 2.359375 -0.1875 C 2.304688 -0.132812 2.234375 -0.0820312 2.140625 -0.03125 C 2.046875 0.0195312 1.953125 0.046875 1.859375 0.046875 C 1.753906 0.046875 1.671875 0.015625 1.609375 -0.046875 C 1.546875 -0.117188 1.515625 -0.207031 1.515625 -0.3125 C 1.515625 -0.332031 1.519531 -0.382812 1.53125 -0.46875 C 1.550781 -0.550781 1.566406 -0.609375 1.578125 -0.640625 L 1.515625 -0.65625 C 1.453125 -0.414062 1.363281 -0.238281 1.25 -0.125 C 1.144531 -0.0078125 1.007812 0.046875 0.84375 0.046875 C 0.664062 0.046875 0.523438 -0.0078125 0.421875 -0.125 C 0.316406 -0.25 0.242188 -0.398438 0.203125 -0.578125 C 0.160156 -0.753906 0.140625 -0.941406 0.140625 -1.140625 Z M 1.484375 -1.171875 C 1.492188 -1.210938 1.5 -1.269531 1.5 -1.34375 C 1.5 -1.375 1.5 -1.40625 1.5 -1.4375 C 1.5 -1.476562 1.492188 -1.507812 1.484375 -1.53125 C 1.429688 -1.570312 1.367188 -1.597656 1.296875 -1.609375 C 1.234375 -1.628906 1.175781 -1.640625 1.125 -1.640625 C 1.09375 -1.640625 1.054688 -1.632812 1.015625 -1.625 C 0.992188 -1.601562 0.972656 -1.546875 0.953125 -1.453125 C 0.941406 -1.367188 0.9375 -1.269531 0.9375 -1.15625 C 0.9375 -1.039062 0.941406 -0.925781 0.953125 -0.8125 C 0.972656 -0.707031 1 -0.625 1.03125 -0.5625 C 1.050781 -0.5625 1.085938 -0.59375 1.140625 -0.65625 C 1.203125 -0.726562 1.265625 -0.8125 1.328125 -0.90625 C 1.398438 -1 1.453125 -1.085938 1.484375 -1.171875 Z M 1.484375 -1.171875 "/></g></g></g><g fill="#000000" fill-opacity="1"><g transform="translate(7.168508, 4.598801)"><g><path d="M 0.328125 -0.6875 C 0.441406 -0.644531 0.53125 -0.609375 0.59375 -0.578125 C 0.664062 -0.554688 0.742188 -0.535156 0.828125 -0.515625 C 0.910156 -0.503906 0.992188 -0.5 1.078125 -0.5 C 1.109375 -0.5 1.132812 -0.5 1.15625 -0.5 C 1.15625 -0.507812 1.15625 -0.519531 1.15625 -0.53125 C 1.164062 -0.539062 1.171875 -0.550781 1.171875 -0.5625 C 1.171875 -0.59375 1.15625 -0.613281 1.125 -0.625 C 1.082031 -0.65625 1 -0.695312 0.875 -0.75 C 0.707031 -0.832031 0.578125 -0.90625 0.484375 -0.96875 C 0.390625 -1.03125 0.304688 -1.109375 0.234375 -1.203125 C 0.171875 -1.304688 0.140625 -1.4375 0.140625 -1.59375 C 0.140625 -1.8125 0.203125 -1.988281 0.328125 -2.125 C 0.460938 -2.257812 0.675781 -2.328125 0.96875 -2.328125 C 1.3125 -2.328125 1.578125 -2.285156 1.765625 -2.203125 C 1.773438 -2.160156 1.78125 -2.113281 1.78125 -2.0625 C 1.78125 -1.945312 1.757812 -1.832031 1.71875 -1.71875 C 1.6875 -1.601562 1.644531 -1.519531 1.59375 -1.46875 C 1.519531 -1.488281 1.414062 -1.523438 1.28125 -1.578125 C 1.175781 -1.617188 1.09375 -1.648438 1.03125 -1.671875 C 0.976562 -1.691406 0.925781 -1.707031 0.875 -1.71875 C 0.851562 -1.707031 0.832031 -1.691406 0.8125 -1.671875 C 0.800781 -1.648438 0.796875 -1.625 0.796875 -1.59375 C 0.796875 -1.5625 0.800781 -1.535156 0.8125 -1.515625 C 0.832031 -1.492188 0.851562 -1.476562 0.875 -1.46875 C 0.894531 -1.457031 0.925781 -1.441406 0.96875 -1.421875 C 0.988281 -1.410156 1.007812 -1.398438 1.03125 -1.390625 C 1.050781 -1.390625 1.066406 -1.382812 1.078125 -1.375 C 1.179688 -1.332031 1.257812 -1.296875 1.3125 -1.265625 C 1.375 -1.242188 1.4375 -1.210938 1.5 -1.171875 C 1.59375 -1.109375 1.664062 -1.03125 1.71875 -0.9375 C 1.78125 -0.84375 1.8125 -0.742188 1.8125 -0.640625 C 1.8125 -0.492188 1.769531 -0.367188 1.6875 -0.265625 C 1.601562 -0.160156 1.5 -0.0820312 1.375 -0.03125 C 1.300781 0 1.222656 0.0195312 1.140625 0.03125 C 1.066406 0.0390625 0.976562 0.046875 0.875 0.046875 C 0.738281 0.046875 0.601562 0.0195312 0.46875 -0.03125 C 0.34375 -0.0820312 0.242188 -0.164062 0.171875 -0.28125 C 0.171875 -0.363281 0.179688 -0.429688 0.203125 -0.484375 C 0.222656 -0.546875 0.265625 -0.613281 0.328125 -0.6875 Z M 0.328125 -0.6875 "/></g></g></g></g></g></g></svg>