<svg xmlns="http://www.w3.org/2000/svg" xmlns:xlink="http://www.w3.org/1999/xlink" width="300" zoomAndPan="magnify" viewBox="0 0 224.87999 67.499998" height="90" preserveAspectRatio="xMidYMid meet" version="1.0"><defs><g/><clipPath id="0d765a5d63"><path d="M 0.765625 0 L 223.992188 0 L 223.992188 67.003906 L 0.765625 67.003906 Z M 0.765625 0 " clip-rule="nonzero"/></clipPath><clipPath id="739bb4e4cc"><path d="M 0.460938 3 L 130 3 L 130 48 L 0.460938 48 Z M 0.460938 3 " clip-rule="nonzero"/></clipPath><clipPath id="ef29b6d87b"><rect x="0" width="131" y="0" height="59"/></clipPath><clipPath id="9328abe679"><path d="M 0.835938 3 L 8 3 L 8 19 L 0.835938 19 Z M 0.835938 3 " clip-rule="nonzero"/></clipPath><clipPath id="e64c2e5b2e"><path d="M 16 7 L 23.707031 7 L 23.707031 16 L 16 16 Z M 16 7 " clip-rule="nonzero"/></clipPath><clipPath id="ed0512f299"><rect x="0" width="24" y="0" height="20"/></clipPath><clipPath id="36b9ba7920"><path d="M 0.375 3 L 9 3 L 9 16 L 0.375 16 Z M 0.375 3 " clip-rule="nonzero"/></clipPath><clipPath id="67a4690ce8"><path d="M 24 7 L 30.871094 7 L 30.871094 16 L 24 16 Z M 24 7 " clip-rule="nonzero"/></clipPath><clipPath id="6b31f27469"><rect x="0" width="31" y="0" height="20"/></clipPath></defs><g clip-path="url(#0d765a5d63)"><path fill="#ffffff" d="M 0.765625 0 L 224.113281 0 L 224.113281 67.003906 L 0.765625 67.003906 Z M 0.765625 0 " fill-opacity="1" fill-rule="nonzero"/><path fill="#ffffff" d="M 0.765625 0 L 224.113281 0 L 224.113281 67.003906 L 0.765625 67.003906 Z M 0.765625 0 " fill-opacity="1" fill-rule="nonzero"/></g><g transform="matrix(1, 0, 0, 1, 47, 2)"><g clip-path="url(#ef29b6d87b)"><g clip-path="url(#739bb4e4cc)"><g fill="#0097b2" fill-opacity="1"><g transform="translate(0.582276, 47.394747)"><g><path d="M 38.5625 -39.484375 L 38.78125 -39.484375 C 39.457031 -39.484375 40.113281 -37.507812 40.75 -33.5625 C 41.382812 -29.625 41.703125 -25.320312 41.703125 -20.65625 L 41.703125 -19.125 C 41.585938 -11.382812 41.347656 -7.320312 40.984375 -6.9375 C 39.753906 -5.363281 38.285156 -4.035156 36.578125 -2.953125 C 34.878906 -1.867188 33.289062 -0.894531 31.8125 -0.03125 C 32.21875 -4.289062 32.421875 -7.546875 32.421875 -9.796875 L 32.421875 -10.59375 C 32.421875 -13.1875 32.21875 -17.679688 31.8125 -24.078125 C 29.207031 -13.847656 27.703125 -8.472656 27.296875 -7.953125 C 25.085938 -5.210938 22.03125 -2.796875 18.125 -0.703125 C 18.070312 -1.265625 17.539062 -3 16.53125 -5.90625 C 15.53125 -8.820312 13.8125 -12.832031 11.375 -17.9375 C 10.851562 -11.332031 10.519531 -7.898438 10.375 -7.640625 C 9.988281 -6.953125 8.671875 -5.613281 6.421875 -3.625 C 4.796875 -2.363281 3.15625 -1.191406 1.5 -0.109375 L 3.109375 -28.40625 L 3.109375 -28.625 C 3.109375 -29.945312 2.472656 -30.609375 1.203125 -30.609375 L 0.390625 -30.609375 C 3.546875 -34.054688 5.8125 -36.234375 7.1875 -37.140625 C 8.507812 -38.035156 9.519531 -38.484375 10.21875 -38.484375 L 10.265625 -38.484375 C 11.640625 -38.390625 13.988281 -35.941406 17.3125 -31.140625 C 19.257812 -28.398438 20.738281 -25.738281 21.75 -23.15625 C 22.21875 -22 22.617188 -20.832031 22.953125 -19.65625 C 24.867188 -26 26.347656 -29.828125 27.390625 -31.140625 C 30.328125 -34.429688 32.757812 -36.644531 34.6875 -37.78125 C 36.625 -38.914062 37.914062 -39.484375 38.5625 -39.484375 Z M 38.5625 -39.484375 "/></g></g><g transform="translate(42.868061, 47.394747)"><g><path d="M 9.609375 0.546875 C 5.460938 0.546875 2.773438 -1.921875 1.546875 -6.859375 C 1.328125 -8.148438 1.21875 -9.492188 1.21875 -10.890625 C 1.21875 -18.128906 3.757812 -23.257812 8.84375 -26.28125 C 13.9375 -29.300781 17.421875 -30.8125 19.296875 -30.8125 L 19.625 -30.8125 C 21.195312 -30.8125 23.300781 -29.832031 25.9375 -27.875 C 26.164062 -28.007812 26.378906 -28.078125 26.578125 -28.078125 C 25.929688 -20.066406 25.609375 -14.988281 25.609375 -12.84375 C 25.609375 -10.757812 26.695312 -8.910156 28.875 -7.296875 C 29.539062 -6.890625 30.335938 -6.6875 31.265625 -6.6875 C 32.410156 -6.6875 33.609375 -6.816406 34.859375 -7.078125 C 29.773438 -2.359375 25.851562 0 23.09375 0 C 20.914062 0 19.03125 -0.976562 17.4375 -2.9375 C 14.9375 -0.613281 12.328125 0.546875 9.609375 0.546875 Z M 16.140625 -6.203125 C 16.640625 -11.953125 16.960938 -16.523438 17.109375 -19.921875 C 17.109375 -21.785156 15.257812 -23.09375 11.5625 -23.84375 C 10.757812 -20.425781 10.359375 -17.566406 10.359375 -15.265625 C 10.359375 -10.242188 12.285156 -7.222656 16.140625 -6.203125 Z M 16.140625 -6.203125 "/></g></g><g transform="translate(74.078997, 47.394747)"><g><path d="M 15.875 -36.625 C 16.019531 -35.632812 16.109375 -34.554688 16.140625 -33.390625 L 16.140625 -32.625 C 16.140625 -31.519531 16.085938 -30.023438 15.984375 -28.140625 C 18.316406 -27.359375 20.320312 -26.96875 22 -26.96875 L 22.328125 -26.96875 C 22.816406 -26.96875 23.492188 -27.039062 24.359375 -27.1875 C 22.347656 -23.195312 19.265625 -20.789062 15.109375 -19.96875 C 14.816406 -16.8125 14.671875 -14.210938 14.671875 -12.171875 C 14.671875 -10.148438 15.179688 -8.804688 16.203125 -8.140625 C 17.234375 -7.578125 18.421875 -7.285156 19.765625 -7.265625 C 21.503906 -7.285156 23.390625 -8.375 25.421875 -10.53125 C 21.992188 -3.488281 17.832031 0.03125 12.9375 0.03125 C 12.695312 0.03125 12.457031 0.0195312 12.21875 0 C 8.289062 -0.382812 6.316406 -2 6.296875 -4.84375 C 6.867188 -12.71875 7.226562 -18.476562 7.375 -22.125 C 4.601562 -22.707031 2.457031 -23 0.9375 -23 C 0.425781 -23 -0.289062 -22.890625 -1.21875 -22.671875 C 0.375 -25.929688 3.203125 -28.15625 7.265625 -29.34375 C 7.265625 -31.800781 6.257812 -34.300781 4.25 -36.84375 C 6.519531 -40.019531 8.890625 -42.125 11.359375 -43.15625 C 11.722656 -43.300781 12.078125 -43.382812 12.421875 -43.40625 L 12.46875 -43.40625 C 14.269531 -43.375 15.40625 -41.113281 15.875 -36.625 Z M 15.875 -36.625 "/></g></g><g transform="translate(100.555232, 47.394747)"><g><path d="M 1.796875 0 C 1.648438 -15.019531 1.578125 -26.882812 1.578125 -35.59375 C 4.671875 -38.625 7.5 -40.910156 10.0625 -42.453125 L 10.0625 -42.34375 C 10.132812 -37.664062 10.171875 -31.785156 10.171875 -24.703125 C 13.398438 -27.316406 16.773438 -28.625 20.296875 -28.625 L 20.734375 -28.625 C 23.703125 -28.625 25.1875 -26.8125 25.1875 -23.1875 L 25.1875 -16.875 C 25.351562 -12.75 25.847656 -10.191406 26.671875 -9.203125 C 27.429688 -8.296875 28.253906 -7.84375 29.140625 -7.84375 L 29.328125 -7.84375 C 25.648438 -3.050781 22.492188 -0.65625 19.859375 -0.65625 C 18.984375 -0.65625 18.242188 -1.164062 17.640625 -2.1875 C 17.035156 -3.21875 16.648438 -5.789062 16.484375 -9.90625 L 16.484375 -16.875 C 16.484375 -20.0625 15.140625 -21.65625 12.453125 -21.65625 C 11.398438 -21.582031 10.6875 -21.429688 10.3125 -21.203125 C 10.289062 -19.765625 10.28125 -18.6875 10.28125 -17.96875 L 10.28125 -6.640625 C 8.03125 -4.242188 5.203125 -2.03125 1.796875 0 Z M 1.796875 0 "/></g></g></g></g></g></g><g transform="matrix(1, 0, 0, 1, 120, 46)"><g clip-path="url(#ed0512f299)"><g clip-path="url(#9328abe679)"><g fill="#000000" fill-opacity="1"><g transform="translate(1.05495, 15.76294)"><g><path d="M 1.671875 1.0625 C 1.703125 0.957031 1.722656 0.820312 1.734375 0.65625 C 1.753906 0.5 1.757812 0.347656 1.75 0.203125 C 1.738281 -0.140625 1.710938 -0.613281 1.671875 -1.21875 C 1.617188 -2.03125 1.582031 -2.703125 1.5625 -3.234375 C 1.539062 -3.773438 1.53125 -4.285156 1.53125 -4.765625 C 1.53125 -4.921875 1.535156 -5.144531 1.546875 -5.4375 L 1.546875 -5.609375 L 0.578125 -5.734375 C 0.515625 -5.953125 0.472656 -6.164062 0.453125 -6.375 C 0.429688 -6.59375 0.421875 -6.859375 0.421875 -7.171875 C 0.734375 -7.335938 1.160156 -7.484375 1.703125 -7.609375 L 1.734375 -7.734375 C 1.410156 -8.023438 1.148438 -8.34375 0.953125 -8.6875 C 0.765625 -9.03125 0.671875 -9.390625 0.671875 -9.765625 C 0.671875 -10.203125 0.789062 -10.570312 1.03125 -10.875 C 1.28125 -11.1875 1.625 -11.421875 2.0625 -11.578125 C 2.5 -11.734375 3.015625 -11.8125 3.609375 -11.8125 C 3.960938 -11.8125 4.3125 -11.789062 4.65625 -11.75 C 5.007812 -11.71875 5.4375 -11.632812 5.9375 -11.5 C 6.007812 -11.289062 6.046875 -11.050781 6.046875 -10.78125 C 6.046875 -10.476562 6.003906 -10.160156 5.921875 -9.828125 C 5.847656 -9.503906 5.75 -9.222656 5.625 -8.984375 C 5.144531 -9.128906 4.765625 -9.238281 4.484375 -9.3125 C 4.203125 -9.394531 3.890625 -9.460938 3.546875 -9.515625 C 3.472656 -9.492188 3.40625 -9.453125 3.34375 -9.390625 C 3.289062 -9.335938 3.257812 -9.285156 3.25 -9.234375 C 3.289062 -9.003906 3.378906 -8.738281 3.515625 -8.4375 C 3.660156 -8.144531 3.828125 -7.878906 4.015625 -7.640625 L 6.03125 -8.015625 C 6.195312 -7.765625 6.28125 -7.398438 6.28125 -6.921875 C 6.28125 -6.640625 6.25 -6.367188 6.1875 -6.109375 C 6.132812 -5.847656 6.0625 -5.664062 5.96875 -5.5625 C 5.90625 -5.5625 5.816406 -5.5625 5.703125 -5.5625 C 5.234375 -5.5625 4.800781 -5.617188 4.40625 -5.734375 C 4.382812 -5.160156 4.367188 -4.753906 4.359375 -4.515625 C 4.359375 -4.328125 4.347656 -4.015625 4.328125 -3.578125 L 4.28125 -2.375 C 4.257812 -1.6875 4.234375 -1.113281 4.203125 -0.65625 C 4.179688 -0.207031 4.144531 0.222656 4.09375 0.640625 C 4.050781 1.023438 3.992188 1.359375 3.921875 1.640625 C 3.847656 1.921875 3.734375 2.164062 3.578125 2.375 C 3.191406 2.882812 2.5625 3.140625 1.6875 3.140625 C 1.332031 3.140625 0.976562 3.070312 0.625 2.9375 C 0.28125 2.8125 0.015625 2.597656 -0.171875 2.296875 C -0.179688 2.003906 -0.132812 1.710938 -0.03125 1.421875 C 0.0625 1.128906 0.203125 0.878906 0.390625 0.671875 Z M 1.671875 1.0625 "/></g></g></g></g><g fill="#000000" fill-opacity="1"><g transform="translate(7.519258, 15.76294)"><g><path d="M 0.484375 -4.296875 C 0.484375 -5.179688 0.625 -5.945312 0.90625 -6.59375 C 1.1875 -7.238281 1.617188 -7.738281 2.203125 -8.09375 C 2.785156 -8.445312 3.515625 -8.625 4.390625 -8.625 C 5.367188 -8.625 6.132812 -8.441406 6.6875 -8.078125 C 7.238281 -7.722656 7.625 -7.222656 7.84375 -6.578125 C 8.0625 -5.941406 8.171875 -5.160156 8.171875 -4.234375 C 8.171875 -3.390625 8.023438 -2.640625 7.734375 -1.984375 C 7.441406 -1.328125 7 -0.804688 6.40625 -0.421875 C 5.820312 -0.046875 5.101562 0.140625 4.25 0.140625 C 2.925781 0.140625 1.96875 -0.265625 1.375 -1.078125 C 0.78125 -1.890625 0.484375 -2.960938 0.484375 -4.296875 Z M 4.546875 -1.984375 C 4.785156 -1.984375 4.9375 -2.003906 5 -2.046875 C 5.101562 -2.242188 5.179688 -2.519531 5.234375 -2.875 C 5.296875 -3.226562 5.328125 -3.609375 5.328125 -4.015625 C 5.328125 -4.390625 5.300781 -4.742188 5.25 -5.078125 C 5.207031 -5.410156 5.144531 -5.671875 5.0625 -5.859375 C 5.007812 -5.929688 4.898438 -5.984375 4.734375 -6.015625 C 4.578125 -6.046875 4.40625 -6.0625 4.21875 -6.0625 C 3.96875 -6.0625 3.796875 -6.03125 3.703125 -5.96875 C 3.460938 -5.550781 3.34375 -4.972656 3.34375 -4.234375 C 3.34375 -3.890625 3.367188 -3.535156 3.421875 -3.171875 C 3.472656 -2.804688 3.539062 -2.472656 3.625 -2.171875 C 3.6875 -2.109375 3.804688 -2.0625 3.984375 -2.03125 C 4.160156 -2 4.347656 -1.984375 4.546875 -1.984375 Z M 4.546875 -1.984375 "/></g></g></g><g clip-path="url(#e64c2e5b2e)"><g fill="#000000" fill-opacity="1"><g transform="translate(16.182013, 15.76294)"><g><path d="M 1.234375 -1.953125 C 1.234375 -2.160156 1.238281 -2.671875 1.25 -3.484375 C 1.257812 -5.085938 1.265625 -5.960938 1.265625 -6.109375 L 0.59375 -6.21875 C 0.5 -6.5 0.429688 -6.757812 0.390625 -7 C 0.359375 -7.238281 0.34375 -7.484375 0.34375 -7.734375 C 0.34375 -7.835938 0.34375 -7.914062 0.34375 -7.96875 C 0.425781 -8.039062 0.554688 -8.128906 0.734375 -8.234375 C 0.910156 -8.335938 1.113281 -8.425781 1.34375 -8.5 C 1.582031 -8.582031 1.828125 -8.625 2.078125 -8.625 C 2.660156 -8.625 3.082031 -8.492188 3.34375 -8.234375 C 3.601562 -7.984375 3.734375 -7.609375 3.734375 -7.109375 C 3.734375 -6.804688 3.691406 -6.421875 3.609375 -5.953125 C 3.535156 -5.484375 3.460938 -5.148438 3.390625 -4.953125 L 3.640625 -4.90625 L 4.078125 -6.5625 C 4.273438 -7.300781 4.519531 -7.828125 4.8125 -8.140625 C 5.101562 -8.460938 5.429688 -8.625 5.796875 -8.625 C 6.035156 -8.625 6.269531 -8.585938 6.5 -8.515625 C 6.738281 -8.441406 6.921875 -8.351562 7.046875 -8.25 C 7.179688 -7.945312 7.25 -7.546875 7.25 -7.046875 C 7.25 -6.691406 7.210938 -6.34375 7.140625 -6 C 7.078125 -5.664062 6.992188 -5.394531 6.890625 -5.1875 L 5.359375 -5.390625 C 5.046875 -5.054688 4.710938 -4.597656 4.359375 -4.015625 C 4.015625 -3.429688 3.738281 -2.894531 3.53125 -2.40625 L 3.515625 -2.015625 L 4.9375 -2.359375 C 5.175781 -1.992188 5.3125 -1.5625 5.34375 -1.0625 C 5.34375 -1.03125 5.234375 -0.910156 5.015625 -0.703125 C 4.796875 -0.492188 4.507812 -0.300781 4.15625 -0.125 C 3.800781 0.0507812 3.394531 0.140625 2.9375 0.140625 C 2.457031 0.140625 2.054688 0.015625 1.734375 -0.234375 C 1.421875 -0.492188 1.253906 -0.925781 1.234375 -1.53125 C 1.234375 -1.601562 1.234375 -1.742188 1.234375 -1.953125 Z M 1.234375 -1.953125 "/></g></g></g></g></g></g><g transform="matrix(1, 0, 0, 1, 145, 46)"><g clip-path="url(#6b31f27469)"><g clip-path="url(#36b9ba7920)"><g fill="#000000" fill-opacity="1"><g transform="translate(0.456966, 15.76294)"><g><path d="M 0.90625 -4.703125 C 0.90625 -6.972656 0.953125 -8.53125 1.046875 -9.375 L 0.21875 -9.515625 C 0.101562 -9.960938 0.046875 -10.445312 0.046875 -10.96875 C 0.117188 -11.050781 0.253906 -11.160156 0.453125 -11.296875 C 0.648438 -11.429688 0.878906 -11.550781 1.140625 -11.65625 C 1.410156 -11.757812 1.675781 -11.8125 1.9375 -11.8125 C 2.582031 -11.8125 3.085938 -11.671875 3.453125 -11.390625 C 3.816406 -11.109375 4 -10.628906 4 -9.953125 C 4 -9.609375 3.972656 -9.085938 3.921875 -8.390625 C 3.867188 -7.691406 3.773438 -6.84375 3.640625 -5.84375 C 3.515625 -4.84375 3.34375 -3.796875 3.125 -2.703125 L 3.25 -2.640625 C 3.632812 -3.160156 4.003906 -3.738281 4.359375 -4.375 C 4.710938 -5.019531 4.992188 -5.617188 5.203125 -6.171875 L 4.578125 -6.3125 C 4.515625 -6.644531 4.484375 -7.035156 4.484375 -7.484375 L 4.484375 -7.75 C 4.671875 -7.976562 4.925781 -8.179688 5.25 -8.359375 C 5.570312 -8.535156 5.972656 -8.625 6.453125 -8.625 C 6.796875 -8.625 7.09375 -8.554688 7.34375 -8.421875 C 7.601562 -8.296875 7.800781 -8.117188 7.9375 -7.890625 C 8.070312 -7.671875 8.140625 -7.410156 8.140625 -7.109375 C 8.140625 -6.890625 8.101562 -6.679688 8.03125 -6.484375 C 7.96875 -6.285156 7.867188 -6.078125 7.734375 -5.859375 C 7.378906 -5.304688 6.769531 -4.519531 5.90625 -3.5 C 6.195312 -3.09375 6.476562 -2.738281 6.75 -2.4375 C 6.863281 -2.488281 6.96875 -2.554688 7.0625 -2.640625 C 7.15625 -2.734375 7.273438 -2.863281 7.421875 -3.03125 L 7.578125 -3.1875 L 8.484375 -2.515625 C 8.441406 -1.648438 8.253906 -0.988281 7.921875 -0.53125 C 7.585938 -0.0820312 7.144531 0.140625 6.59375 0.140625 C 5.976562 0.140625 5.519531 -0.0390625 5.21875 -0.40625 C 4.914062 -0.78125 4.691406 -1.304688 4.546875 -1.984375 C 4.015625 -1.398438 3.546875 -0.910156 3.140625 -0.515625 C 2.734375 -0.128906 2.46875 0.0859375 2.34375 0.140625 C 2.070312 0.140625 1.816406 0.109375 1.578125 0.046875 C 1.335938 -0.015625 1.160156 -0.113281 1.046875 -0.25 C 0.984375 -0.9375 0.941406 -1.617188 0.921875 -2.296875 C 0.910156 -2.972656 0.90625 -3.773438 0.90625 -4.703125 Z M 0.90625 -4.703125 "/></g></g></g></g><g fill="#000000" fill-opacity="1"><g transform="translate(9.207076, 15.76294)"><g><path d="M 0.828125 -10.4375 C 0.828125 -10.863281 0.960938 -11.210938 1.234375 -11.484375 C 1.515625 -11.753906 1.960938 -11.890625 2.578125 -11.890625 C 3.191406 -11.890625 3.632812 -11.753906 3.90625 -11.484375 C 4.1875 -11.210938 4.328125 -10.863281 4.328125 -10.4375 C 4.328125 -10.195312 4.242188 -9.972656 4.078125 -9.765625 C 3.910156 -9.566406 3.691406 -9.40625 3.421875 -9.28125 C 3.148438 -9.164062 2.867188 -9.109375 2.578125 -9.109375 C 2.265625 -9.109375 1.972656 -9.175781 1.703125 -9.3125 C 1.429688 -9.457031 1.21875 -9.632812 1.0625 -9.84375 C 0.90625 -10.050781 0.828125 -10.25 0.828125 -10.4375 Z M 0.46875 -6.28125 C 0.40625 -6.519531 0.359375 -6.738281 0.328125 -6.9375 C 0.304688 -7.132812 0.296875 -7.335938 0.296875 -7.546875 L 0.3125 -7.75 C 0.40625 -7.882812 0.5625 -8.015625 0.78125 -8.140625 C 1 -8.273438 1.25 -8.390625 1.53125 -8.484375 C 1.820312 -8.578125 2.125 -8.625 2.4375 -8.625 C 3.113281 -8.625 3.59375 -8.46875 3.875 -8.15625 C 4.164062 -7.851562 4.3125 -7.378906 4.3125 -6.734375 C 4.3125 -6.347656 4.253906 -5.84375 4.140625 -5.21875 C 4.035156 -4.59375 3.90625 -3.984375 3.75 -3.390625 C 3.601562 -2.804688 3.472656 -2.382812 3.359375 -2.125 L 3.375 -2.125 L 4.453125 -2.515625 C 4.648438 -2.347656 4.796875 -2.164062 4.890625 -1.96875 C 4.992188 -1.769531 5.0625 -1.539062 5.09375 -1.28125 C 5.09375 -1.238281 4.984375 -1.09375 4.765625 -0.84375 C 4.554688 -0.601562 4.273438 -0.378906 3.921875 -0.171875 C 3.566406 0.0351562 3.160156 0.140625 2.703125 0.140625 C 2.234375 0.140625 1.851562 0.015625 1.5625 -0.234375 C 1.28125 -0.484375 1.140625 -0.914062 1.140625 -1.53125 C 1.140625 -2.238281 1.15625 -2.992188 1.1875 -3.796875 C 1.226562 -4.597656 1.289062 -5.375 1.375 -6.125 Z M 0.46875 -6.28125 "/></g></g></g><g fill="#000000" fill-opacity="1"><g transform="translate(14.419288, 15.76294)"><g><path d="M 0.53125 -4.203125 C 0.53125 -4.941406 0.628906 -5.644531 0.828125 -6.3125 C 1.035156 -6.988281 1.359375 -7.539062 1.796875 -7.96875 C 2.242188 -8.40625 2.804688 -8.625 3.484375 -8.625 C 4.242188 -8.625 4.96875 -8.382812 5.65625 -7.90625 L 5.765625 -7.984375 C 5.753906 -8.546875 5.6875 -9.054688 5.5625 -9.515625 L 4.078125 -9.609375 C 4.015625 -9.703125 3.960938 -9.832031 3.921875 -10 C 3.878906 -10.175781 3.859375 -10.359375 3.859375 -10.546875 C 3.859375 -10.785156 3.890625 -11 3.953125 -11.1875 C 4.242188 -11.394531 4.613281 -11.550781 5.0625 -11.65625 C 5.519531 -11.757812 5.976562 -11.8125 6.4375 -11.8125 C 6.945312 -11.8125 7.328125 -11.707031 7.578125 -11.5 C 7.835938 -11.289062 8.007812 -10.972656 8.09375 -10.546875 C 8.1875 -10.117188 8.234375 -9.53125 8.234375 -8.78125 C 8.234375 -7.789062 8.191406 -6.664062 8.109375 -5.40625 C 8.023438 -4.144531 7.921875 -3.117188 7.796875 -2.328125 L 7.765625 -2.203125 L 8.609375 -2.5625 C 8.753906 -2.414062 8.878906 -2.234375 8.984375 -2.015625 C 9.097656 -1.804688 9.164062 -1.5625 9.1875 -1.28125 C 9.125 -1.132812 8.976562 -0.945312 8.75 -0.71875 C 8.519531 -0.488281 8.238281 -0.285156 7.90625 -0.109375 C 7.582031 0.0546875 7.238281 0.140625 6.875 0.140625 C 6.476562 0.140625 6.171875 0.0195312 5.953125 -0.21875 C 5.734375 -0.457031 5.625 -0.765625 5.625 -1.140625 C 5.625 -1.234375 5.648438 -1.429688 5.703125 -1.734375 C 5.753906 -2.035156 5.796875 -2.242188 5.828125 -2.359375 L 5.609375 -2.421875 C 5.359375 -1.554688 5.03125 -0.910156 4.625 -0.484375 C 4.21875 -0.0664062 3.710938 0.140625 3.109375 0.140625 C 2.460938 0.140625 1.945312 -0.0703125 1.5625 -0.5 C 1.175781 -0.925781 0.90625 -1.460938 0.75 -2.109375 C 0.601562 -2.765625 0.53125 -3.460938 0.53125 -4.203125 Z M 5.515625 -4.328125 C 5.546875 -4.503906 5.5625 -4.707031 5.5625 -4.9375 C 5.5625 -5.09375 5.554688 -5.238281 5.546875 -5.375 C 5.535156 -5.507812 5.519531 -5.601562 5.5 -5.65625 C 5.3125 -5.800781 5.09375 -5.898438 4.84375 -5.953125 C 4.59375 -6.015625 4.367188 -6.046875 4.171875 -6.046875 C 4.046875 -6.046875 3.910156 -6.035156 3.765625 -6.015625 C 3.671875 -5.910156 3.59375 -5.695312 3.53125 -5.375 C 3.46875 -5.050781 3.4375 -4.691406 3.4375 -4.296875 C 3.4375 -3.859375 3.46875 -3.4375 3.53125 -3.03125 C 3.59375 -2.632812 3.679688 -2.320312 3.796875 -2.09375 C 3.867188 -2.09375 4.015625 -2.210938 4.234375 -2.453125 C 4.460938 -2.691406 4.695312 -2.984375 4.9375 -3.328125 C 5.1875 -3.679688 5.378906 -4.015625 5.515625 -4.328125 Z M 5.515625 -4.328125 "/></g></g></g><g clip-path="url(#67a4690ce8)"><g fill="#000000" fill-opacity="1"><g transform="translate(23.613456, 15.76294)"><g><path d="M 1.1875 -2.5625 C 1.613281 -2.394531 1.953125 -2.265625 2.203125 -2.171875 C 2.460938 -2.078125 2.742188 -1.992188 3.046875 -1.921875 C 3.359375 -1.859375 3.671875 -1.828125 3.984375 -1.828125 C 4.117188 -1.828125 4.210938 -1.84375 4.265625 -1.875 C 4.285156 -1.894531 4.300781 -1.921875 4.3125 -1.953125 C 4.320312 -1.992188 4.328125 -2.039062 4.328125 -2.09375 C 4.328125 -2.1875 4.269531 -2.265625 4.15625 -2.328125 C 3.988281 -2.421875 3.679688 -2.570312 3.234375 -2.78125 C 2.617188 -3.070312 2.132812 -3.332031 1.78125 -3.5625 C 1.425781 -3.789062 1.125 -4.09375 0.875 -4.46875 C 0.632812 -4.851562 0.515625 -5.332031 0.515625 -5.90625 C 0.515625 -6.726562 0.757812 -7.382812 1.25 -7.875 C 1.738281 -8.375 2.515625 -8.625 3.578125 -8.625 C 4.835938 -8.625 5.820312 -8.457031 6.53125 -8.125 C 6.5625 -7.988281 6.578125 -7.8125 6.578125 -7.59375 C 6.578125 -7.1875 6.515625 -6.769531 6.390625 -6.34375 C 6.265625 -5.925781 6.097656 -5.613281 5.890625 -5.40625 C 5.617188 -5.5 5.226562 -5.648438 4.71875 -5.859375 C 4.351562 -5.992188 4.0625 -6.101562 3.84375 -6.1875 C 3.625 -6.269531 3.425781 -6.328125 3.25 -6.359375 C 3.15625 -6.335938 3.078125 -6.28125 3.015625 -6.1875 C 2.960938 -6.101562 2.9375 -6 2.9375 -5.875 C 2.9375 -5.769531 2.96875 -5.679688 3.03125 -5.609375 C 3.09375 -5.535156 3.160156 -5.476562 3.234375 -5.4375 C 3.316406 -5.394531 3.4375 -5.335938 3.59375 -5.265625 C 3.664062 -5.234375 3.734375 -5.203125 3.796875 -5.171875 C 3.867188 -5.148438 3.9375 -5.128906 4 -5.109375 C 4.375 -4.941406 4.671875 -4.804688 4.890625 -4.703125 C 5.109375 -4.609375 5.320312 -4.488281 5.53125 -4.34375 C 5.894531 -4.082031 6.179688 -3.785156 6.390625 -3.453125 C 6.609375 -3.128906 6.71875 -2.769531 6.71875 -2.375 C 6.71875 -1.832031 6.5625 -1.363281 6.25 -0.96875 C 5.945312 -0.570312 5.554688 -0.285156 5.078125 -0.109375 C 4.828125 -0.015625 4.550781 0.0507812 4.25 0.09375 C 3.957031 0.132812 3.609375 0.15625 3.203125 0.15625 C 2.734375 0.15625 2.25 0.0664062 1.75 -0.109375 C 1.257812 -0.296875 0.882812 -0.601562 0.625 -1.03125 C 0.625 -1.332031 0.660156 -1.59375 0.734375 -1.8125 C 0.816406 -2.03125 0.96875 -2.28125 1.1875 -2.5625 Z M 1.1875 -2.5625 "/></g></g></g></g></g></g></svg>